<mxfile host="app.diagrams.net" modified="2023-07-21T17:10:03.729Z" agent="Mozilla/5.0 (X11; Linux x86_64) AppleWebKit/537.36 (KHTML, like Gecko) Chrome/114.0.0.0 Safari/537.36" etag="NUR92CXBbFdQvFoE_j-3" version="21.6.2" type="github">
  <diagram name="Page-1" id="dzPbxc_S0FdNH-0hRwGj">
    <mxGraphModel dx="2292" dy="624" grid="1" gridSize="10" guides="1" tooltips="1" connect="1" arrows="1" fold="1" page="1" pageScale="1" pageWidth="1169" pageHeight="827" math="0" shadow="0">
      <root>
        <mxCell id="0" />
        <mxCell id="1" parent="0" />
        <mxCell id="O3mi8lwjvQZ2d7uI_Vai-33" style="edgeStyle=orthogonalEdgeStyle;rounded=0;orthogonalLoop=1;jettySize=auto;html=1;exitX=0.5;exitY=1;exitDx=0;exitDy=0;entryX=0.5;entryY=0;entryDx=0;entryDy=0;" edge="1" parent="1" source="O3mi8lwjvQZ2d7uI_Vai-1" target="O3mi8lwjvQZ2d7uI_Vai-29">
          <mxGeometry relative="1" as="geometry" />
        </mxCell>
        <mxCell id="O3mi8lwjvQZ2d7uI_Vai-1" value="Build Script" style="rounded=1;whiteSpace=wrap;html=1;fillColor=#d5e8d4;strokeColor=#82b366;" vertex="1" parent="1">
          <mxGeometry x="520" y="90" width="120" height="50" as="geometry" />
        </mxCell>
        <mxCell id="O3mi8lwjvQZ2d7uI_Vai-2" value="&lt;font style=&quot;&quot;&gt;&lt;font style=&quot;font-size: 12px;&quot;&gt;Virtual Machines&lt;/font&gt;&lt;font style=&quot;font-size: 6px;&quot;&gt;&lt;br&gt;&lt;br&gt;&lt;/font&gt;&lt;font style=&quot;font-size: 10px;&quot;&gt;infra/rmc/virtual-machines&lt;/font&gt;&lt;/font&gt;" style="rounded=1;whiteSpace=wrap;html=1;fillColor=#f8cecc;strokeColor=#b85450;" vertex="1" parent="1">
          <mxGeometry x="280" y="340" width="120" height="60" as="geometry" />
        </mxCell>
        <mxCell id="O3mi8lwjvQZ2d7uI_Vai-36" style="edgeStyle=orthogonalEdgeStyle;rounded=0;orthogonalLoop=1;jettySize=auto;html=1;exitX=0.5;exitY=1;exitDx=0;exitDy=0;entryX=0.5;entryY=0;entryDx=0;entryDy=0;" edge="1" parent="1" source="O3mi8lwjvQZ2d7uI_Vai-30" target="O3mi8lwjvQZ2d7uI_Vai-3">
          <mxGeometry relative="1" as="geometry" />
        </mxCell>
        <mxCell id="O3mi8lwjvQZ2d7uI_Vai-3" value="RKE2&lt;br&gt;&lt;br&gt;infra/rmc/rke2" style="rounded=1;whiteSpace=wrap;html=1;fillColor=#e1d5e7;strokeColor=#9673a6;" vertex="1" parent="1">
          <mxGeometry x="520" y="340" width="120" height="60" as="geometry" />
        </mxCell>
        <mxCell id="O3mi8lwjvQZ2d7uI_Vai-37" style="edgeStyle=orthogonalEdgeStyle;rounded=0;orthogonalLoop=1;jettySize=auto;html=1;entryX=0.5;entryY=0;entryDx=0;entryDy=0;" edge="1" parent="1" source="O3mi8lwjvQZ2d7uI_Vai-30" target="O3mi8lwjvQZ2d7uI_Vai-4">
          <mxGeometry relative="1" as="geometry">
            <mxPoint x="610" y="290" as="sourcePoint" />
            <Array as="points">
              <mxPoint x="600" y="300" />
              <mxPoint x="820" y="300" />
            </Array>
          </mxGeometry>
        </mxCell>
        <mxCell id="O3mi8lwjvQZ2d7uI_Vai-4" value="Rancher&lt;br&gt;&lt;br&gt;infra/rmc/rancher" style="rounded=1;whiteSpace=wrap;html=1;fillColor=#dae8fc;strokeColor=#6c8ebf;" vertex="1" parent="1">
          <mxGeometry x="760" y="340" width="120" height="60" as="geometry" />
        </mxCell>
        <mxCell id="O3mi8lwjvQZ2d7uI_Vai-7" value="" style="edgeStyle=orthogonalEdgeStyle;rounded=0;orthogonalLoop=1;jettySize=auto;html=1;" edge="1" parent="1" source="O3mi8lwjvQZ2d7uI_Vai-5" target="O3mi8lwjvQZ2d7uI_Vai-1">
          <mxGeometry relative="1" as="geometry" />
        </mxCell>
        <mxCell id="O3mi8lwjvQZ2d7uI_Vai-5" value="local.env" style="rounded=1;whiteSpace=wrap;html=1;" vertex="1" parent="1">
          <mxGeometry x="360" y="90" width="120" height="50" as="geometry" />
        </mxCell>
        <mxCell id="O3mi8lwjvQZ2d7uI_Vai-8" value="" style="edgeStyle=orthogonalEdgeStyle;rounded=0;orthogonalLoop=1;jettySize=auto;html=1;" edge="1" parent="1" source="O3mi8lwjvQZ2d7uI_Vai-6" target="O3mi8lwjvQZ2d7uI_Vai-1">
          <mxGeometry relative="1" as="geometry" />
        </mxCell>
        <mxCell id="O3mi8lwjvQZ2d7uI_Vai-6" value="PLANS" style="rounded=1;whiteSpace=wrap;html=1;" vertex="1" parent="1">
          <mxGeometry x="680" y="90" width="120" height="50" as="geometry" />
        </mxCell>
        <mxCell id="O3mi8lwjvQZ2d7uI_Vai-12" value="&lt;font style=&quot;font-size: 10px;&quot;&gt;cluster-RKE&lt;/font&gt;" style="rounded=1;whiteSpace=wrap;html=1;" vertex="1" parent="1">
          <mxGeometry x="230" y="700" width="120" height="30" as="geometry" />
        </mxCell>
        <mxCell id="O3mi8lwjvQZ2d7uI_Vai-14" value="&lt;font style=&quot;font-size: 10px;&quot;&gt;cluster-RKE2&lt;/font&gt;" style="rounded=1;whiteSpace=wrap;html=1;" vertex="1" parent="1">
          <mxGeometry x="300" y="744" width="120" height="30" as="geometry" />
        </mxCell>
        <mxCell id="O3mi8lwjvQZ2d7uI_Vai-15" value="&lt;font style=&quot;font-size: 10px;&quot;&gt;config-cluster-RKE2-1&lt;/font&gt;" style="rounded=1;whiteSpace=wrap;html=1;" vertex="1" parent="1">
          <mxGeometry x="380" y="700" width="120" height="30" as="geometry" />
        </mxCell>
        <mxCell id="O3mi8lwjvQZ2d7uI_Vai-16" value="&lt;font style=&quot;font-size: 10px;&quot;&gt;config-cluster-RKE2-2&lt;/font&gt;" style="rounded=1;whiteSpace=wrap;html=1;" vertex="1" parent="1">
          <mxGeometry x="450" y="744" width="120" height="30" as="geometry" />
        </mxCell>
        <mxCell id="O3mi8lwjvQZ2d7uI_Vai-17" value="&lt;font style=&quot;font-size: 10px;&quot;&gt;loki&lt;/font&gt;" style="rounded=1;whiteSpace=wrap;html=1;" vertex="1" parent="1">
          <mxGeometry x="525" y="700" width="120" height="30" as="geometry" />
        </mxCell>
        <mxCell id="O3mi8lwjvQZ2d7uI_Vai-18" value="&lt;font style=&quot;font-size: 10px;&quot;&gt;neuvector&lt;/font&gt;" style="rounded=1;whiteSpace=wrap;html=1;" vertex="1" parent="1">
          <mxGeometry x="670" y="700" width="120" height="30" as="geometry" />
        </mxCell>
        <mxCell id="O3mi8lwjvQZ2d7uI_Vai-19" value="&lt;font style=&quot;font-size: 10px;&quot;&gt;neuvector-helm&lt;/font&gt;" style="rounded=1;whiteSpace=wrap;html=1;" vertex="1" parent="1">
          <mxGeometry x="595" y="744" width="120" height="30" as="geometry" />
        </mxCell>
        <mxCell id="O3mi8lwjvQZ2d7uI_Vai-20" value="&lt;font style=&quot;font-size: 10px;&quot;&gt;opni&lt;/font&gt;" style="rounded=1;whiteSpace=wrap;html=1;" vertex="1" parent="1">
          <mxGeometry x="740" y="744" width="120" height="30" as="geometry" />
        </mxCell>
        <mxCell id="O3mi8lwjvQZ2d7uI_Vai-21" value="&lt;font style=&quot;font-size: 10px;&quot;&gt;rmc&lt;/font&gt;" style="rounded=1;whiteSpace=wrap;html=1;" vertex="1" parent="1">
          <mxGeometry x="810" y="700" width="120" height="30" as="geometry" />
        </mxCell>
        <mxCell id="O3mi8lwjvQZ2d7uI_Vai-23" value="output.tf" style="rounded=1;whiteSpace=wrap;html=1;" vertex="1" parent="1">
          <mxGeometry x="190" y="340" width="70" height="20" as="geometry" />
        </mxCell>
        <mxCell id="O3mi8lwjvQZ2d7uI_Vai-26" value="" style="edgeStyle=orthogonalEdgeStyle;rounded=0;orthogonalLoop=1;jettySize=auto;html=1;" edge="1" parent="1" source="O3mi8lwjvQZ2d7uI_Vai-24" target="O3mi8lwjvQZ2d7uI_Vai-2">
          <mxGeometry relative="1" as="geometry" />
        </mxCell>
        <mxCell id="O3mi8lwjvQZ2d7uI_Vai-24" value="variables.tf" style="rounded=1;whiteSpace=wrap;html=1;" vertex="1" parent="1">
          <mxGeometry x="190" y="360" width="70" height="20" as="geometry" />
        </mxCell>
        <mxCell id="O3mi8lwjvQZ2d7uI_Vai-27" value="main.tf" style="rounded=1;whiteSpace=wrap;html=1;" vertex="1" parent="1">
          <mxGeometry x="190" y="380" width="70" height="20" as="geometry" />
        </mxCell>
        <mxCell id="O3mi8lwjvQZ2d7uI_Vai-34" style="edgeStyle=orthogonalEdgeStyle;rounded=0;orthogonalLoop=1;jettySize=auto;html=1;exitX=0.5;exitY=1;exitDx=0;exitDy=0;entryX=0.5;entryY=0;entryDx=0;entryDy=0;" edge="1" parent="1" source="O3mi8lwjvQZ2d7uI_Vai-29" target="O3mi8lwjvQZ2d7uI_Vai-30">
          <mxGeometry relative="1" as="geometry" />
        </mxCell>
        <mxCell id="O3mi8lwjvQZ2d7uI_Vai-29" value="infra" style="rounded=1;whiteSpace=wrap;html=1;fillColor=#d5e8d4;strokeColor=#82b366;" vertex="1" parent="1">
          <mxGeometry x="520" y="160" width="120" height="40" as="geometry" />
        </mxCell>
        <mxCell id="O3mi8lwjvQZ2d7uI_Vai-35" style="edgeStyle=orthogonalEdgeStyle;rounded=0;orthogonalLoop=1;jettySize=auto;html=1;entryX=0.5;entryY=0;entryDx=0;entryDy=0;" edge="1" parent="1" source="O3mi8lwjvQZ2d7uI_Vai-30" target="O3mi8lwjvQZ2d7uI_Vai-2">
          <mxGeometry relative="1" as="geometry">
            <Array as="points">
              <mxPoint x="560" y="300" />
              <mxPoint x="340" y="300" />
            </Array>
          </mxGeometry>
        </mxCell>
        <mxCell id="O3mi8lwjvQZ2d7uI_Vai-30" value="rmc" style="rounded=1;whiteSpace=wrap;html=1;fillColor=#d5e8d4;strokeColor=#82b366;" vertex="1" parent="1">
          <mxGeometry x="520" y="220" width="120" height="40" as="geometry" />
        </mxCell>
        <mxCell id="O3mi8lwjvQZ2d7uI_Vai-38" value="&lt;br&gt;&lt;br&gt;Builds VMs" style="rounded=1;whiteSpace=wrap;html=1;fillColor=#f8cecc;strokeColor=#b85450;" vertex="1" parent="1">
          <mxGeometry x="280" y="460" width="120" height="60" as="geometry" />
        </mxCell>
        <mxCell id="O3mi8lwjvQZ2d7uI_Vai-41" style="edgeStyle=orthogonalEdgeStyle;rounded=0;orthogonalLoop=1;jettySize=auto;html=1;" edge="1" parent="1" source="O3mi8lwjvQZ2d7uI_Vai-40" target="O3mi8lwjvQZ2d7uI_Vai-29">
          <mxGeometry relative="1" as="geometry" />
        </mxCell>
        <mxCell id="O3mi8lwjvQZ2d7uI_Vai-45" value="" style="edgeStyle=orthogonalEdgeStyle;rounded=0;orthogonalLoop=1;jettySize=auto;html=1;" edge="1" parent="1" source="O3mi8lwjvQZ2d7uI_Vai-40" target="O3mi8lwjvQZ2d7uI_Vai-43">
          <mxGeometry relative="1" as="geometry" />
        </mxCell>
        <mxCell id="O3mi8lwjvQZ2d7uI_Vai-40" value="modules" style="rounded=1;whiteSpace=wrap;html=1;fillColor=#d5e8d4;strokeColor=#82b366;" vertex="1" parent="1">
          <mxGeometry x="-40" y="160" width="120" height="40" as="geometry" />
        </mxCell>
        <mxCell id="O3mi8lwjvQZ2d7uI_Vai-42" value="vsphere" style="rounded=1;whiteSpace=wrap;html=1;fillColor=#d5e8d4;strokeColor=#82b366;" vertex="1" parent="1">
          <mxGeometry x="-250" y="220" width="120" height="40" as="geometry" />
        </mxCell>
        <mxCell id="O3mi8lwjvQZ2d7uI_Vai-43" value="rke2" style="rounded=1;whiteSpace=wrap;html=1;fillColor=#d5e8d4;strokeColor=#82b366;" vertex="1" parent="1">
          <mxGeometry x="-40" y="220" width="120" height="40" as="geometry" />
        </mxCell>
        <mxCell id="O3mi8lwjvQZ2d7uI_Vai-44" value="rancher" style="rounded=1;whiteSpace=wrap;html=1;fillColor=#d5e8d4;strokeColor=#82b366;" vertex="1" parent="1">
          <mxGeometry x="160" y="220" width="120" height="40" as="geometry" />
        </mxCell>
        <mxCell id="O3mi8lwjvQZ2d7uI_Vai-46" value="vm" style="rounded=1;whiteSpace=wrap;html=1;fillColor=#d5e8d4;strokeColor=#82b366;" vertex="1" parent="1">
          <mxGeometry x="-250" y="270" width="120" height="80" as="geometry" />
        </mxCell>
        <mxCell id="O3mi8lwjvQZ2d7uI_Vai-47" value="output.tf" style="rounded=1;whiteSpace=wrap;html=1;" vertex="1" parent="1">
          <mxGeometry x="-340" y="270" width="70" height="20" as="geometry" />
        </mxCell>
        <mxCell id="O3mi8lwjvQZ2d7uI_Vai-48" value="variables.tf" style="rounded=1;whiteSpace=wrap;html=1;" vertex="1" parent="1">
          <mxGeometry x="-340" y="290" width="70" height="20" as="geometry" />
        </mxCell>
        <mxCell id="O3mi8lwjvQZ2d7uI_Vai-49" value="providers.tf" style="rounded=1;whiteSpace=wrap;html=1;" vertex="1" parent="1">
          <mxGeometry x="-340" y="310" width="70" height="20" as="geometry" />
        </mxCell>
        <mxCell id="O3mi8lwjvQZ2d7uI_Vai-50" value="templates" style="rounded=1;whiteSpace=wrap;html=1;fillColor=#d5e8d4;strokeColor=#82b366;" vertex="1" parent="1">
          <mxGeometry x="-250" y="390" width="120" height="40" as="geometry" />
        </mxCell>
        <mxCell id="O3mi8lwjvQZ2d7uI_Vai-51" value="&lt;font style=&quot;font-size: 10px;&quot;&gt;userdata.tftpl&lt;/font&gt;" style="rounded=1;whiteSpace=wrap;html=1;" vertex="1" parent="1">
          <mxGeometry x="-340" y="410" width="70" height="20" as="geometry" />
        </mxCell>
        <mxCell id="O3mi8lwjvQZ2d7uI_Vai-52" value="&lt;font style=&quot;font-size: 10px;&quot;&gt;metadata.tftpl&lt;/font&gt;" style="rounded=1;whiteSpace=wrap;html=1;" vertex="1" parent="1">
          <mxGeometry x="-340" y="390" width="70" height="20" as="geometry" />
        </mxCell>
        <mxCell id="O3mi8lwjvQZ2d7uI_Vai-53" value="main.tf" style="rounded=1;whiteSpace=wrap;html=1;" vertex="1" parent="1">
          <mxGeometry x="-340" y="330" width="70" height="20" as="geometry" />
        </mxCell>
        <mxCell id="O3mi8lwjvQZ2d7uI_Vai-78" style="edgeStyle=orthogonalEdgeStyle;rounded=0;orthogonalLoop=1;jettySize=auto;html=1;" edge="1" parent="1" source="O3mi8lwjvQZ2d7uI_Vai-56" target="O3mi8lwjvQZ2d7uI_Vai-70">
          <mxGeometry relative="1" as="geometry">
            <Array as="points">
              <mxPoint x="460" y="560" />
              <mxPoint x="460" y="480" />
            </Array>
          </mxGeometry>
        </mxCell>
        <mxCell id="O3mi8lwjvQZ2d7uI_Vai-56" value="&lt;font style=&quot;font-size: 8px;&quot;&gt;node_count: module.nodes.node_count&lt;br&gt;ip_addresses: module.nodes.ip_addresses&lt;br&gt;dns_server_list: module.nodes.dns_server_list&lt;br&gt;&lt;/font&gt;" style="rounded=1;whiteSpace=wrap;html=1;" vertex="1" parent="1">
          <mxGeometry x="255" y="530" width="170" height="60" as="geometry" />
        </mxCell>
        <mxCell id="O3mi8lwjvQZ2d7uI_Vai-57" value="&lt;br&gt;&lt;br&gt;Builds RKE2 Cluster" style="rounded=1;whiteSpace=wrap;html=1;fillColor=#f8cecc;strokeColor=#b85450;" vertex="1" parent="1">
          <mxGeometry x="520" y="460" width="120" height="60" as="geometry" />
        </mxCell>
        <mxCell id="O3mi8lwjvQZ2d7uI_Vai-58" value="main.tf" style="rounded=1;whiteSpace=wrap;html=1;" vertex="1" parent="1">
          <mxGeometry x="430" y="380" width="70" height="20" as="geometry" />
        </mxCell>
        <mxCell id="O3mi8lwjvQZ2d7uI_Vai-62" value="" style="edgeStyle=orthogonalEdgeStyle;rounded=0;orthogonalLoop=1;jettySize=auto;html=1;" edge="1" parent="1" source="O3mi8lwjvQZ2d7uI_Vai-59" target="O3mi8lwjvQZ2d7uI_Vai-3">
          <mxGeometry relative="1" as="geometry" />
        </mxCell>
        <mxCell id="O3mi8lwjvQZ2d7uI_Vai-59" value="variables.tf" style="rounded=1;whiteSpace=wrap;html=1;" vertex="1" parent="1">
          <mxGeometry x="430" y="360" width="70" height="20" as="geometry" />
        </mxCell>
        <mxCell id="O3mi8lwjvQZ2d7uI_Vai-60" value="output.tf" style="rounded=1;whiteSpace=wrap;html=1;" vertex="1" parent="1">
          <mxGeometry x="430" y="340" width="70" height="20" as="geometry" />
        </mxCell>
        <mxCell id="O3mi8lwjvQZ2d7uI_Vai-63" value="&lt;font style=&quot;font-size: 8px;&quot;&gt;cluster_name: module.rke2.cluster_name&lt;br&gt;kubeconfig_folder: module.rke2.kubeconfig_folder&lt;br&gt;&lt;/font&gt;" style="rounded=1;whiteSpace=wrap;html=1;" vertex="1" parent="1">
          <mxGeometry x="485" y="530" width="190" height="60" as="geometry" />
        </mxCell>
        <mxCell id="O3mi8lwjvQZ2d7uI_Vai-65" value="&lt;font style=&quot;font-size: 8px;&quot;&gt;terraform.tfstate&lt;/font&gt;" style="rounded=1;whiteSpace=wrap;html=1;" vertex="1" parent="1">
          <mxGeometry x="190" y="400" width="70" height="20" as="geometry" />
        </mxCell>
        <mxCell id="O3mi8lwjvQZ2d7uI_Vai-68" value="rke2_install" style="rounded=1;whiteSpace=wrap;html=1;fillColor=#d5e8d4;strokeColor=#82b366;" vertex="1" parent="1">
          <mxGeometry x="-40" y="270" width="120" height="80" as="geometry" />
        </mxCell>
        <mxCell id="O3mi8lwjvQZ2d7uI_Vai-71" style="edgeStyle=orthogonalEdgeStyle;rounded=0;orthogonalLoop=1;jettySize=auto;html=1;" edge="1" parent="1" source="O3mi8lwjvQZ2d7uI_Vai-70" target="O3mi8lwjvQZ2d7uI_Vai-68">
          <mxGeometry relative="1" as="geometry">
            <Array as="points">
              <mxPoint x="550" y="430" />
              <mxPoint x="170" y="430" />
              <mxPoint x="170" y="310" />
            </Array>
          </mxGeometry>
        </mxCell>
        <mxCell id="O3mi8lwjvQZ2d7uI_Vai-70" value="rke2" style="rounded=1;whiteSpace=wrap;html=1;fillColor=#fff2cc;strokeColor=#d6b656;" vertex="1" parent="1">
          <mxGeometry x="525" y="470" width="50" height="20" as="geometry" />
        </mxCell>
        <mxCell id="O3mi8lwjvQZ2d7uI_Vai-74" style="edgeStyle=orthogonalEdgeStyle;rounded=0;orthogonalLoop=1;jettySize=auto;html=1;" edge="1" parent="1" source="O3mi8lwjvQZ2d7uI_Vai-72" target="O3mi8lwjvQZ2d7uI_Vai-46">
          <mxGeometry relative="1" as="geometry">
            <Array as="points">
              <mxPoint x="325" y="440" />
              <mxPoint x="-120" y="440" />
              <mxPoint x="-120" y="360" />
              <mxPoint x="-190" y="360" />
            </Array>
          </mxGeometry>
        </mxCell>
        <mxCell id="O3mi8lwjvQZ2d7uI_Vai-72" value="nodes" style="rounded=1;whiteSpace=wrap;html=1;fillColor=#fff2cc;strokeColor=#d6b656;" vertex="1" parent="1">
          <mxGeometry x="300" y="470" width="50" height="20" as="geometry" />
        </mxCell>
        <mxCell id="O3mi8lwjvQZ2d7uI_Vai-76" style="edgeStyle=orthogonalEdgeStyle;rounded=0;orthogonalLoop=1;jettySize=auto;html=1;" edge="1" parent="1" source="O3mi8lwjvQZ2d7uI_Vai-75" target="O3mi8lwjvQZ2d7uI_Vai-65">
          <mxGeometry relative="1" as="geometry">
            <Array as="points">
              <mxPoint x="610" y="410" />
            </Array>
          </mxGeometry>
        </mxCell>
        <mxCell id="O3mi8lwjvQZ2d7uI_Vai-75" value="data" style="rounded=1;whiteSpace=wrap;html=1;fillColor=#fff2cc;strokeColor=#d6b656;" vertex="1" parent="1">
          <mxGeometry x="584" y="470" width="50" height="20" as="geometry" />
        </mxCell>
        <mxCell id="O3mi8lwjvQZ2d7uI_Vai-79" value="output.tf" style="rounded=1;whiteSpace=wrap;html=1;" vertex="1" parent="1">
          <mxGeometry x="-120" y="280" width="70" height="20" as="geometry" />
        </mxCell>
        <mxCell id="O3mi8lwjvQZ2d7uI_Vai-80" value="variables.tf" style="rounded=1;whiteSpace=wrap;html=1;" vertex="1" parent="1">
          <mxGeometry x="-120" y="300" width="70" height="20" as="geometry" />
        </mxCell>
        <mxCell id="O3mi8lwjvQZ2d7uI_Vai-81" value="main.tf" style="rounded=1;whiteSpace=wrap;html=1;" vertex="1" parent="1">
          <mxGeometry x="-120" y="320" width="70" height="20" as="geometry" />
        </mxCell>
        <mxCell id="O3mi8lwjvQZ2d7uI_Vai-83" value="" style="rounded=1;whiteSpace=wrap;html=1;fillColor=#d5e8d4;strokeColor=#82b366;" vertex="1" parent="1">
          <mxGeometry x="-40" y="370" width="120" height="250" as="geometry" />
        </mxCell>
        <mxCell id="O3mi8lwjvQZ2d7uI_Vai-84" value="locals" style="rounded=1;whiteSpace=wrap;html=1;fillColor=#ffe6cc;strokeColor=#d79b00;" vertex="1" parent="1">
          <mxGeometry x="-30" y="380" width="40" height="20" as="geometry" />
        </mxCell>
        <mxCell id="O3mi8lwjvQZ2d7uI_Vai-87" value="rke2_token" style="rounded=1;whiteSpace=wrap;html=1;fillColor=#ffe6cc;strokeColor=#d79b00;" vertex="1" parent="1">
          <mxGeometry x="-30" y="410" width="100" height="20" as="geometry" />
        </mxCell>
        <mxCell id="O3mi8lwjvQZ2d7uI_Vai-88" value="all_nodes" style="rounded=1;whiteSpace=wrap;html=1;fillColor=#ffe6cc;strokeColor=#d79b00;" vertex="1" parent="1">
          <mxGeometry x="15" y="380" width="60" height="20" as="geometry" />
        </mxCell>
        <mxCell id="O3mi8lwjvQZ2d7uI_Vai-89" value="rke2_token" style="rounded=1;whiteSpace=wrap;html=1;fillColor=#ffe6cc;strokeColor=#d79b00;" vertex="1" parent="1">
          <mxGeometry x="-30" y="440" width="100" height="20" as="geometry" />
        </mxCell>
      </root>
    </mxGraphModel>
  </diagram>
</mxfile>
